HIERARCHY
ROOT Hips
{
  OFFSET -125.086 92.215 135.881
  CHANNELS 6 Xposition Yposition Zposition Zrotation Xrotation Yrotation
  JOINT LeftUpLeg
  {
    OFFSET 8.64259 1.95398 -2.38835
    CHANNELS 3 Zrotation Xrotation Yrotation
    JOINT LeftLeg
    {
      OFFSET 43.7702 0 0
      CHANNELS 3 Zrotation Xrotation Yrotation
      JOINT LeftFoot
      {
        OFFSET 40.6238 0 0
        CHANNELS 3 Zrotation Xrotation Yrotation
        JOINT LeftToeBase
        {
          OFFSET 12.7242 0 0
          CHANNELS 3 Zrotation Xrotation Yrotation
          End Site
          {
            OFFSET 0 0 0
          }
        }
      }
    }
  }
  JOINT RightUpLeg
  {
    OFFSET -8.2249 1.95398 -2.59336
    CHANNELS 3 Zrotation Xrotation Yrotation
    JOINT RightLeg
    {
      OFFSET 43.5653 0 0
      CHANNELS 3 Zrotation Xrotation Yrotation
      JOINT RightFoot
      {
        OFFSET 40.6238 0 0
        CHANNELS 3 Zrotation Xrotation Yrotation
        JOINT RightToeBase
        {
          OFFSET 12.7242 0 0
          CHANNELS 3 Zrotation Xrotation Yrotation
          End Site
          {
            OFFSET 0 0 0
          }
        }
      }
    }
  }
  JOINT Spine
  {
    OFFSET 0.165834 0.87714 6.61349
    CHANNELS 3 Zrotation Xrotation Yrotation
    JOINT Spine1
    {
      OFFSET 7.38963 1.71661e-005 0
      CHANNELS 3 Zrotation Xrotation Yrotation
      JOINT Spine2
      {
        OFFSET 11.9445 1.14441e-005 0
        CHANNELS 3 Zrotation Xrotation Yrotation
        JOINT Spine3
        {
          OFFSET 14.7254 4.19617e-005 0
          CHANNELS 3 Zrotation Xrotation Yrotation
          JOINT Spine4
          {
            OFFSET 10.9679 0 0
            CHANNELS 3 Zrotation Xrotation Yrotation
            JOINT RightShoulder
            {
              OFFSET 2.46616 -1.6653 3.69651
              CHANNELS 3 Zrotation Xrotation Yrotation
              JOINT RightArm
              {
                OFFSET 13.0012 0 0
                CHANNELS 3 Zrotation Xrotation Yrotation
                JOINT RightForeArm
                {
                  OFFSET 28.7848 1.52588e-005 0
                  CHANNELS 3 Zrotation Xrotation Yrotation
                  JOINT RightHand
                  {
                    OFFSET 26.5688 1.52588e-005 0
                    CHANNELS 3 Zrotation Xrotation Yrotation
                    End Site
                    {
                      OFFSET 0 0 0
                    }
                  }
                }
              }
            }
            JOINT LeftShoulder
            {
              OFFSET 2.38034 -1.29275 -3.7523
              CHANNELS 3 Zrotation Xrotation Yrotation
              JOINT LeftArm
              {
                OFFSET 16.3182 6.10352e-005 0
                CHANNELS 3 Zrotation Xrotation Yrotation
                JOINT LeftForeArm
                {
                  OFFSET 27.0901 0 0
                  CHANNELS 3 Zrotation Xrotation Yrotation
                  JOINT LeftHand
                  {
                    OFFSET 24.5451 1.52588e-005 0
                    CHANNELS 3 Zrotation Xrotation Yrotation
                    End Site
                    {
                      OFFSET 0 0 0
                    }
                  }
                }
              }
            }
            JOINT Neck
            {
              OFFSET 5.0226 -0.0266342 0
              CHANNELS 3 Zrotation Xrotation Yrotation
              JOINT Head
              {
                OFFSET 6.69363 2.86102e-005 0
                CHANNELS 3 Zrotation Xrotation Yrotation
                End Site
                {
                  OFFSET 0 0 0
                }
              }
            }
          }
        }
      }
    }
  }
}
MOTION
Frames:	6
Frame Time:	0.0416667
-301.849 45.1527 -268.206 93.275 -44.9437 98.678 -113.415 -80.2323 102.149 -146.409 -20.7717 56.061 -85.7787 -22.6345 -35.8827 -32.8378 -29.0348 45.8939 170.559 43.6307 104.22 2.25539 88.4155 -134.446 4.66081 -5.04937 86.9221 -173.546 -76.0632 -8.50636 1.15519 5.34859 -90.868 16.1926 1.83942 -2.0545 4.52117 1.74726 -2.13346 -18.0174 2.37176 -1.40672 1.99524 2.37178 -1.40671 141.544 -43.4821 -19.6109 44.564 -40.1688 69.7121 -63.9266 56.9365 -107.168 3.58837 -1.9099 -53.2774 -39.0318 -49.5066 153.54 150.907 18.7111 -135.929 -67.474 2.96876 -64.5861 95.3119 -43.139 -42.436 78.5285 6.29912 -4.24972 12.8999 14.5337 44.9012 
-302.614 45.1591 -268.887 93.0517 -44.8834 98.7678 -113.24 -79.8514 102.586 -144.114 -20.4677 57.2256 -86.214 -23.396 -34.3177 -31.6131 -29.7279 47.5447 169.635 45.116 104.985 11.2881 88.0944 -143.666 5.14094 -5.95577 86.6311 176.74 -79.0781 -18.2137 1.14368 5.36964 -90.8837 16.1502 1.80929 -2.08006 4.47867 1.71599 -2.15765 -18.0593 2.35069 -1.44016 1.95339 2.35069 -1.44016 141.985 -43.9236 -19.296 43.6855 -39.7989 69.781 -65.7333 57.7849 -105.999 3.69572 -2.03186 -54.8567 -38.57 -49.8854 153.941 151.007 18.0677 -135.097 -67.3372 3.37268 -65.3255 95.7718 -43.0214 -42.045 78.7739 6.29389 -4.19503 14.0837 14.9261 44.715 
-304.782 45.3479 -270.768 92.4027 -44.7055 99.0249 -94.3298 -68.878 123.027 -133.323 -23.8628 65.1457 -87.6874 -31.425 -21.7504 -27.8234 -31.437 52.3808 166.735 49.0714 107.439 26.8587 86.8616 -159.339 6.6726 -8.87538 85.995 140.977 -82.5173 -53.685 1.11082 5.4282 -90.9301 16.0322 1.72228 -2.15607 4.36048 1.62575 -2.22975 -18.1755 2.29056 -1.53885 1.8371 2.29059 -1.53885 143.262 -45.1713 -18.3797 40.986 -38.7051 69.8577 -71.2073 60.0672 -102.295 3.55961 -2.18718 -59.4456 -37.2192 -50.9705 155.106 151.242 16.45 -132.73 -66.8436 4.55314 -67.2305 97.0819 -42.646 -40.9114 79.445 6.27645 -4.03001 17.5975 16.0545 44.1642 
-308.023 46.1554 -273.422 91.3534 -44.4089 99.4297 -106.487 -53.9077 117.161 -112.458 -21.5139 67.1817 -70.8166 -44.1937 18.146 -21.0361 -33.2982 60.3877 161.73 53.8815 111.842 27.8766 87.1515 -159.273 9.76888 -11.4202 86.2045 133.311 -82.1848 -60.7441 1.05921 5.51435 -91.0073 15.8584 1.58369 -2.28438 4.18631 1.48166 -2.35184 -18.3466 2.19693 -1.70296 1.66604 2.19694 -1.70296 145.312 -47.0726 -16.8972 36.1335 -36.8787 69.5903 -79.7154 63.1133 -96.2926 2.07776 -1.6805 -66.6105 -35.0098 -52.6716 156.992 151.464 14.4568 -129.082 -65.8284 6.45585 -69.6943 99.1067 -41.9568 -39.1136 80.414 6.26988 -3.74625 23.5168 17.8181 43.2572 
-311.888 47.8186 -276.395 89.9223 -43.9888 99.9601 -126.756 -48.6456 110.32 -98.5614 -14.8797 53.8496 -45.3302 -42.9988 56.4634 -10.5747 -33.9836 71.7341 155.506 57.3916 117.42 17.3529 88.5573 -145.824 16.662 -14.2127 91.1246 -166.111 -63.2407 1.78316 0.991842 5.61597 -91.116 15.6531 1.39859 -2.46874 3.98041 1.28864 -2.52786 -18.5481 2.07577 -1.93451 1.46452 2.07575 -1.93452 148.076 -49.4437 -14.8691 28.4519 -34.2504 68.4562 -87.6097 66.3027 -90.9893 -1.51608 0.602894 -75.3111 -31.9358 -54.883 159.592 151.569 12.5587 -124.485 -64.1651 8.95264 -72.2531 101.675 -40.8934 -36.7672 81.5979 6.48167 -3.36285 31.9247 19.9569 42.1427 
-316.292 49.9025 -279.827 88.1265 -43.4402 100.592 -136.089 -47.9601 113.247 -89.7375 -5.5016 39.9916 -34.0247 -39.1287 72.9859 3.71829 -31.2928 85.7527 149.73 58.7241 122.748 -117.544 86.933 -6.5777 34.3543 -12.4721 106.46 -179.34 34.2155 31.9884 0.911494 5.72069 -91.2569 15.4406 1.17202 -2.71203 3.76723 1.05155 -2.76094 -18.7556 1.93273 -2.23477 1.25707 1.93272 -2.23477 151.506 -52.0937 -12.3005 16.8933 -30.5637 65.8722 -87.3171 69.6016 -93.3522 -6.82226 5.23261 -83.9877 -27.9407 -57.4831 162.952 151.595 10.9346 -119.305 -61.8062 11.8231 -74.7882 104.584 -39.419 -34.031 83.0726 7.7118 -3.01539 42.4156 21.9165 41.6748 
